<svg height="70pt" preserveAspectRatio="xMidYMid meet" viewBox="0 0 70 70" width="70pt" xmlns="http://www.w3.org/2000/svg"><path d="m269 655c-37-13-44-15-60-15-5 0-7-5-3-12 4-6 3-8-4-4-6 3-18-1-26-10-9-8-16-12-16-7 0 4-5 0-11-10-6-9-15-15-20-11-5 3-8 1-7-4 2-5-9-23-24-40-14-17-24-33-21-36 4-3 1-6-5-6-7 0-11-3-11-7 3-20-2-34-11-28-6 4-7-1-3-10 3-10 0-20-7-25-9-6-9-13-1-28 8-14 8-23 1-27-6-4-8-16-4-27 4-15 3-18-6-13-9 6-9 3-1-14 7-12 9-26 6-31s0-12 6-15c5-4 8-13 5-21-3-7 3-18 12-23 9-6 13-11 8-11s-2-7 5-17c8-9 12-17 9-17-16-4 109-122 126-118 8 2 14-2 14-8 0-5 11-10 25-10s25-4 25-8c0-12 136-8 152 6 11 9 17 9 26 0s12-7 12 8c0 14 2 16 9 5 6-9 11-10 15-2 4 6 12 8 18 5 7-4 8-2 4 4-6 11-3 13 19 12 11-1 33 25 28 33-3 5 3 7 13 5s19 3 19 10 7 17 15 22 11 10 5 10c-5 0-3 5 5 10s15 13 16 17c0 4 9 25 18 47 9 21 15 41 12 44-4 3 2 14 11 25 10 11 12 17 6 13-9-5-13 0-13 14 0 13 4 19 11 14 8-4 8-1 1 13-6 10-9 31-8 46 2 15-1 27-5 27-5 0-9 9-9 19 0 11-4 23-10 26-5 3-10 15-10 26 0 10-4 19-10 19-5 0-10 7-10 15s-7 15-15 15-15 6-15 13c0 15-36 48-44 40-3-4-6 2-6 12s-3 16-6 12c-4-3-19 0-35 8-15 8-38 17-51 19-13 3-23 6-23 7 0 8-118 3-146-6z" transform="matrix(.1 0 0 -.1 0 70)"/></svg>